#!OML:ASF E:\inclinewalkrobotboard\Project 1\Capture day 1\Session 1\subject1.ASF
:FULLY-SPECIFIED
:DEGREES
457
root 9.22984 27.7807 -10.7498 -168.363 1.39015 180.197
lowerback -7.18824 0.618067 -5.5073
upperback 2.38977 1.26725 1.78718
thorax 6.39896 0.366518 5.14655
lowerneck 9.82613 -0.670392 -6.29448
upperneck 16.6883 -4.27046 5.65701
head 3.63575 -3.13796 2.72644
rclavicle -7.45443e-016 1.53064e-014
rhumerus -46.0863 -32.3386 -64.463
rradius 25.5772
rwrist 18.0766
rhand -12.4193 -37.9463
rfingers 7.12502
rthumb 13.6529 -67.4785
lclavicle -7.45443e-016 1.53064e-014
lhumerus -31.3535 8.60217 83.5601
lradius 22.1568
lwrist -24.722
lhand -22.4246 -18.3672
lfingers 7.12502
lthumb 3.99876 11.575
rfemur -11.4918 7.61108 20.5524
rtibia 15.2936
rfoot -30.3361 -4.03134
rtoes -19.9331
lfemur -9.40782 -12.3219 -19.8886
ltibia 14.8783
lfoot -33.9463 7.72102
ltoes -64.1247
458
root 9.23147 27.7805 -10.7464 -168.34 1.53804 180.273
lowerback -7.21301 0.693137 -5.42138
upperback 2.37974 1.36167 1.76186
thorax 6.392 0.417496 5.08251
lowerneck 10.0607 -0.713215 -6.18874
upperneck 16.441 -4.30537 5.66223
head 3.52475 -3.146 2.71609
rclavicle -5.46658e-016 5.96354e-016
rhumerus -46.1854 -32.4567 -64.4237
rradius 25.6237
rwrist 18.1515
rhand -12.3358 -37.6493
rfingers 7.12502
rthumb 13.7334 -67.1761
lclavicle -5.46658e-016 5.96354e-016
lhumerus -31.3448 7.90625 83.9139
lradius 22.7019
lwrist -24.2026
lhand -22.4523 -18.3464
lfingers 7.12502
lthumb 3.972 11.5963
rfemur -11.58 7.74601 20.6259
rtibia 15.3631
rfoot -30.3053 -4.05923
rtoes -20.0888
lfemur -9.43888 -12.2245 -19.7834
ltibia 14.8726
lfoot -34.0385 8.02129
ltoes -64.3307
459
root 9.237 27.7827 -10.7321 -168.281 1.46561 180.332
lowerback -7.15488 0.661865 -5.42416
upperback 2.36624 1.31456 1.80783
thorax 6.34937 0.395247 5.12538
lowerneck 10.2541 -0.723429 -6.11114
upperneck 16.2114 -4.29194 5.64416
head 3.42288 -3.13175 2.70278
rclavicle 5.66536e-015 3.22031e-014
rhumerus -46.0625 -32.4927 -64.4991
rradius 25.6824
rwrist 18.153
rhand -12.1428 -37.6537
rfingers 7.12502
rthumb 13.9194 -67.1679
lclavicle 5.66536e-015 3.22031e-014
lhumerus -31.2324 7.55544 84.268
lradius 23.0566
lwrist -24.0104
lhand -22.8749 -18.3834
lfingers 7.12502
lthumb 3.56387 11.5666
rfemur -11.7228 7.84058 20.7181
rtibia 15.4197
rfoot -30.2543 -4.28499
rtoes -19.9659
lfemur -9.69727 -12.1558 -19.6013
ltibia 15.0591
lfoot -34.0259 7.89384
ltoes -64.3107
460
root 9.23734 27.7825 -10.7311 -168.257 1.44682 180.391
lowerback -7.26707 0.625927 -5.38232
upperback 2.39118 1.26581 1.87543
thorax 6.44603 0.367811 5.17156
lowerneck 10.2699 -0.677222 -6.33515
upperneck 16.1336 -4.23084 5.6636
head 3.39741 -3.10882 2.74727
rclavicle 9.69075e-015 -8.74653e-015
rhumerus -45.7869 -32.293 -64.7177
rradius 25.7809
rwrist 17.9566
rhand -11.8638 -38.1831
rfingers 7.12502
rthumb 14.1882 -67.6785
lclavicle 9.69075e-015 -8.74653e-015
lhumerus -31.082 7.51479 84.5823
lradius 23.2964
lwrist -23.7838
lhand -23.2795 -18.6516
lfingers 7.12502
lthumb 3.17322 11.3045
rfemur -11.7136 7.8869 20.7943
rtibia 15.3525
rfoot -30.2151 -4.33315
rtoes -19.8322
lfemur -9.71581 -12.2299 -19.5201
ltibia 15.0322
lfoot -34.0529 7.65244
ltoes -63.9721
461
root 9.23771 27.7814 -10.731 -168.275 1.39769 180.424
lowerback -7.27811 0.596536 -5.34196
upperback 2.37459 1.2214 1.90147
thorax 6.4405 0.347659 5.17088
lowerneck 10.6043 -0.676175 -6.34912
upperneck 15.5934 -4.18449 5.432
head 3.57351 -3.1165 2.91289
rclavicle -1.27222e-014 -5.76476e-015
rhumerus -45.6711 -32.1689 -64.8476
rradius 25.8381
rwrist 17.8254
rhand -11.8234 -38.487
rfingers 7.12502
rthumb 14.2272 -67.9798
lclavicle -1.27222e-014 -5.76476e-015
lhumerus -30.981 7.67329 84.7053
lradius 23.5443
lwrist -23.6293
lhand -23.1142 -19.0878
lfingers 7.12502
lthumb 3.33281 10.8659
rfemur -11.6516 7.90787 20.8511
rtibia 15.2971
rfoot -30.2518 -4.36667
rtoes -19.9321
lfemur -9.66708 -12.3101 -19.4916
ltibia 14.9892
lfoot -34.0523 7.66511
ltoes -63.946
462
root 9.23714 27.7812 -10.7308 -168.333 1.40179 180.383
lowerback -7.23163 0.578004 -5.35753
upperback 2.35729 1.19687 1.8639
thorax 6.39896 0.33732 5.13506
lowerneck 10.8882 -0.677687 -6.24703
upperneck 15.4008 -4.17593 5.37466
head 3.44874 -3.11005 2.87715
rclavicle 2.5345e-015 2.74323e-014
rhumerus -45.6404 -32.1055 -64.9605
rradius 25.8602
rwrist 17.7515
rhand -11.8679 -38.3395
rfingers 7.12502
rthumb 14.1843 -67.8352
lclavicle 2.5345e-015 2.74323e-014
lhumerus -30.9844 7.67442 84.7998
lradius 23.9985
lwrist -23.6223
lhand -22.8637 -19.0129
lfingers 7.12502
lthumb 3.5747 10.9369
rfemur -11.552 7.92959 20.8142
rtibia 15.2191
rfoot -30.2854 -4.35925
rtoes -20.0182
lfemur -9.55625 -12.337 -19.5765
ltibia 14.9285
lfoot -34.0156 7.89459
ltoes -64.1882
463
root 9.23304 27.7788 -10.7421 -168.405 1.36986 180.257
lowerback -7.35126 0.519014 -5.38557
upperback 2.41544 1.1314 1.79933
thorax 6.53886 0.298754 5.07877
lowerneck 10.9519 -0.653336 -6.29037
upperneck 15.2964 -4.13562 5.39329
head 3.3991 -3.08856 2.8928
rclavicle -9.93923e-016 1.05356e-014
rhumerus -45.4466 -31.9039 -65.2433
rradius 25.9086
rwrist 17.5919
rhand -11.9574 -38.0913
rfingers 7.12502
rthumb 14.0981 -67.5931
lclavicle -9.93923e-016 1.05356e-014
lhumerus -30.9661 7.44361 84.9882
lradius 24.5602
lwrist -23.4812
lhand -22.7062 -18.6348
lfingers 7.12502
lthumb 3.72686 11.3124
rfemur -11.2949 7.69545 20.6872
rtibia 15.0118
rfoot -30.2618 -4.14049
rtoes -19.8591
lfemur -9.27923 -12.4216 -19.8579
ltibia 14.7177
lfoot -34.0277 7.77447
ltoes -64.1093
